{
	"asset":{
		"generator":"Khronos glTF Blender I/O v3.5.30",
		"version":"2.0"
	},
	"scene":0,
	"scenes":[
		{
			"name":"Scene",
			"nodes":[
				0
			]
		}
	],
	"nodes":[
		{
			"mesh":0,
			"name":"Curve.385"
		}
	],
	"materials":[
		{
			"doubleSided":true,
			"name":"HedgeGreen",
			"pbrMetallicRoughness":{
				"baseColorFactor":[
					0.05014963075518608,
					0.3694135248661041,
					0.03743281960487366,
					1
				],
				"metallicFactor":0,
				"roughnessFactor":0.5
			}
		}
	],
	"meshes":[
		{
			"name":"Mesh.385",
			"primitives":[
				{
					"attributes":{
						"POSITION":0,
						"NORMAL":1
					},
					"indices":2,
					"material":0
				}
			]
		}
	],
	"accessors":[
		{
			"bufferView":0,
			"componentType":5126,
			"count":9926,
			"max":[
				14.893150329589844,
				1.9852967262268066,
				14.936460494995117
			],
			"min":[
				-15.106847763061523,
				-0.014703221619129181,
				-15.0635404586792
			],
			"type":"VEC3"
		},
		{
			"bufferView":1,
			"componentType":5126,
			"count":9926,
			"type":"VEC3"
		},
		{
			"bufferView":2,
			"componentType":5123,
			"count":18066,
			"type":"SCALAR"
		}
	],
	"bufferViews":[
		{
			"buffer":0,
			"byteLength":119112,
			"byteOffset":0,
			"target":34962
		},
		{
			"buffer":0,
			"byteLength":119112,
			"byteOffset":119112,
			"target":34962
		},
		{
			"buffer":0,
			"byteLength":36132,
			"byteOffset":238224,
			"target":34963
		}
	],
	"buffers":[
		{
			"byteLength":274356,
			"uri":"data:application/octet-stream;base64,"
		}
	]
}
