{
	"asset":{
		"generator":"Khronos glTF Blender I/O v3.5.30",
		"version":"2.0"
	},
	"scene":0,
	"scenes":[
		{
			"name":"Scene",
			"nodes":[
				0,
				1
			]
		}
	],
	"nodes":[
		{
			"mesh":0,
			"name":"Cube",
			"scale":[
				3.5821890830993652,
				0.04417310282588005,
				3.5821890830993652
			],
			"translation":[
				0,
				0.07402265816926956,
				0
			]
		},
		{
			"mesh":1,
			"name":"Curve.385",
			"scale":[
				38.143218994140625,
				38.143218994140625,
				38.143218994140625
			],
			"translation":[
				0.1019221767783165,
				-0.014703221619129181,
				0.08479838073253632
			]
		}
	],
	"materials":[
		{
			"doubleSided":true,
			"name":"Material",
			"pbrMetallicRoughness":{
				"baseColorFactor":[
					0.3762551248073578,
					0.21727313101291656,
					0.11675501614809036,
					1
				],
				"metallicFactor":0,
				"roughnessFactor":0.5
			}
		},
		{
			"doubleSided":true,
			"name":"HedgeGreen",
			"pbrMetallicRoughness":{
				"baseColorFactor":[
					0.05014963075518608,
					0.3694135248661041,
					0.03743281960487366,
					1
				],
				"metallicFactor":0,
				"roughnessFactor":0.5
			}
		}
	],
	"meshes":[
		{
			"name":"Cube",
			"primitives":[
				{
					"attributes":{
						"POSITION":0,
						"TEXCOORD_0":1,
						"NORMAL":2
					},
					"indices":3,
					"material":0
				}
			]
		},
		{
			"name":"Mesh.385",
			"primitives":[
				{
					"attributes":{
						"POSITION":4,
						"NORMAL":5
					},
					"indices":6,
					"material":1
				}
			]
		}
	],
	"accessors":[
		{
			"bufferView":0,
			"componentType":5126,
			"count":24,
			"max":[
				1,
				1,
				1
			],
			"min":[
				-1,
				-1,
				-1
			],
			"type":"VEC3"
		},
		{
			"bufferView":1,
			"componentType":5126,
			"count":24,
			"type":"VEC2"
		},
		{
			"bufferView":2,
			"componentType":5126,
			"count":24,
			"type":"VEC3"
		},
		{
			"bufferView":3,
			"componentType":5123,
			"count":36,
			"type":"SCALAR"
		},
		{
			"bufferView":4,
			"componentType":5126,
			"count":9930,
			"max":[
				0.08980303257703781,
				0.01116337813436985,
				0.09019302576780319
			],
			"min":[
				-0.09233808517456055,
				0,
				-0.09199472516775131
			],
			"type":"VEC3"
		},
		{
			"bufferView":5,
			"componentType":5126,
			"count":9930,
			"type":"VEC3"
		},
		{
			"bufferView":6,
			"componentType":5123,
			"count":18066,
			"type":"SCALAR"
		}
	],
	"bufferViews":[
		{
			"buffer":0,
			"byteLength":288,
			"byteOffset":0,
			"target":34962
		},
		{
			"buffer":0,
			"byteLength":192,
			"byteOffset":288,
			"target":34962
		},
		{
			"buffer":0,
			"byteLength":288,
			"byteOffset":480,
			"target":34962
		},
		{
			"buffer":0,
			"byteLength":72,
			"byteOffset":768,
			"target":34963
		},
		{
			"buffer":0,
			"byteLength":119160,
			"byteOffset":840,
			"target":34962
		},
		{
			"buffer":0,
			"byteLength":119160,
			"byteOffset":120000,
			"target":34962
		},
		{
			"buffer":0,
			"byteLength":36132,
			"byteOffset":239160,
			"target":34963
		}
	],
	"buffers":[
		{
			"byteLength":275292,
			"uri":"data:application/octet-stream;base64,"
		}
	]
}
